<svg width="48" height="27" viewBox="0 0 48 27" fill="none" xmlns="http://www.w3.org/2000/svg">
<path d="M5.55682 6.92045L4.65341 7.17614C4.59659 7.02557 4.51278 6.87926 4.40199 6.73722C4.29403 6.59233 4.14631 6.47301 3.95881 6.37926C3.77131 6.28551 3.53125 6.23864 3.23864 6.23864C2.83807 6.23864 2.50426 6.33097 2.23722 6.51562C1.97301 6.69744 1.84091 6.92898 1.84091 7.21023C1.84091 7.46023 1.93182 7.65767 2.11364 7.80256C2.29545 7.94744 2.57955 8.06818 2.96591 8.16477L3.9375 8.40341C4.52273 8.54545 4.95881 8.76278 5.24574 9.0554C5.53267 9.34517 5.67614 9.71875 5.67614 10.1761C5.67614 10.5511 5.56818 10.8864 5.35227 11.1818C5.1392 11.4773 4.84091 11.7102 4.45739 11.8807C4.07386 12.0511 3.62784 12.1364 3.11932 12.1364C2.4517 12.1364 1.89915 11.9915 1.46165 11.7017C1.02415 11.4119 0.747159 10.9886 0.630682 10.4318L1.58523 10.1932C1.67614 10.5455 1.84801 10.8097 2.10085 10.9858C2.35653 11.1619 2.69034 11.25 3.10227 11.25C3.57102 11.25 3.94318 11.1506 4.21875 10.9517C4.49716 10.75 4.63636 10.5085 4.63636 10.2273C4.63636 10 4.55682 9.80966 4.39773 9.65625C4.23864 9.5 3.99432 9.38352 3.66477 9.30682L2.57386 9.05114C1.97443 8.90909 1.53409 8.68892 1.25284 8.39062C0.974432 8.08949 0.835227 7.71307 0.835227 7.26136C0.835227 6.89205 0.93892 6.56534 1.14631 6.28125C1.35653 5.99716 1.64205 5.77415 2.00284 5.61222C2.36648 5.45028 2.77841 5.36932 3.23864 5.36932C3.88636 5.36932 4.39489 5.51136 4.7642 5.79545C5.13636 6.07955 5.40057 6.45455 5.55682 6.92045ZM12.6091 12.1364C11.9954 12.1364 11.467 11.9915 11.0238 11.7017C10.5807 11.4119 10.2398 11.0128 10.0011 10.5043C9.76249 9.99574 9.64317 9.41477 9.64317 8.76136C9.64317 8.09659 9.76533 7.50994 10.0096 7.00142C10.2568 6.49006 10.6006 6.09091 11.0409 5.80398C11.4841 5.5142 12.0011 5.36932 12.592 5.36932C13.0523 5.36932 13.467 5.45455 13.8363 5.625C14.2057 5.79545 14.5082 6.03409 14.744 6.34091C14.9798 6.64773 15.1261 7.00568 15.1829 7.41477H14.1773C14.1006 7.11648 13.9301 6.85227 13.6659 6.62216C13.4045 6.3892 13.0523 6.27273 12.6091 6.27273C12.217 6.27273 11.8733 6.375 11.5778 6.57955C11.2852 6.78125 11.0565 7.06676 10.8917 7.43608C10.7298 7.80256 10.6488 8.23295 10.6488 8.72727C10.6488 9.23295 10.7284 9.6733 10.8875 10.0483C11.0494 10.4233 11.2767 10.7145 11.5693 10.9219C11.8648 11.1293 12.2113 11.233 12.6091 11.233C12.8704 11.233 13.1077 11.1875 13.3207 11.0966C13.5338 11.0057 13.7142 10.875 13.8619 10.7045C14.0096 10.5341 14.1148 10.3295 14.1773 10.0909H15.1829C15.1261 10.4773 14.9855 10.8253 14.7611 11.1349C14.5395 11.4418 14.2454 11.6861 13.879 11.8679C13.5153 12.0469 13.092 12.1364 12.6091 12.1364ZM19.4131 12V5.45455H20.3847V6.44318H20.4529C20.5722 6.11932 20.7881 5.85653 21.1006 5.65483C21.4131 5.45312 21.7654 5.35227 22.1574 5.35227C22.2313 5.35227 22.3236 5.35369 22.4344 5.35653C22.5452 5.35937 22.629 5.36364 22.6858 5.36932V6.39205C22.6517 6.38352 22.5736 6.37074 22.4515 6.35369C22.3321 6.33381 22.2057 6.32386 22.0722 6.32386C21.754 6.32386 21.4699 6.39062 21.2199 6.52415C20.9728 6.65483 20.7767 6.83665 20.6319 7.0696C20.4898 7.29972 20.4188 7.5625 20.4188 7.85795V12H19.4131ZM29.0978 12.1364C28.5069 12.1364 27.9885 11.9957 27.5424 11.7145C27.0992 11.4332 26.7527 11.0398 26.5027 10.5341C26.2555 10.0284 26.1319 9.4375 26.1319 8.76136C26.1319 8.07955 26.2555 7.48437 26.5027 6.97585C26.7527 6.46733 27.0992 6.07244 27.5424 5.79119C27.9885 5.50994 28.5069 5.36932 29.0978 5.36932C29.6887 5.36932 30.2058 5.50994 30.649 5.79119C31.095 6.07244 31.4416 6.46733 31.6887 6.97585C31.9387 7.48437 32.0637 8.07955 32.0637 8.76136C32.0637 9.4375 31.9387 10.0284 31.6887 10.5341C31.4416 11.0398 31.095 11.4332 30.649 11.7145C30.2058 11.9957 29.6887 12.1364 29.0978 12.1364ZM29.0978 11.233C29.5467 11.233 29.916 11.1179 30.2058 10.8878C30.4956 10.6577 30.71 10.3551 30.8492 9.98011C30.9885 9.60511 31.0581 9.19886 31.0581 8.76136C31.0581 8.32386 30.9885 7.91619 30.8492 7.53835C30.71 7.16051 30.4956 6.85511 30.2058 6.62216C29.916 6.3892 29.5467 6.27273 29.0978 6.27273C28.649 6.27273 28.2796 6.3892 27.9899 6.62216C27.7001 6.85511 27.4856 7.16051 27.3464 7.53835C27.2072 7.91619 27.1376 8.32386 27.1376 8.76136C27.1376 9.19886 27.2072 9.60511 27.3464 9.98011C27.4856 10.3551 27.7001 10.6577 27.9899 10.8878C28.2796 11.1179 28.649 11.233 29.0978 11.233Z" fill="black"/>
<path d="M37 5V25L40 21" stroke="black"/>
<path d="M44 5V25L47 21" stroke="black"/>
</svg>
